<?xml version="1.0" encoding="UTF-8"?>
<svg id="Layer_2" data-name="Layer 2" xmlns="http://www.w3.org/2000/svg" viewBox="0 0 240.37 189.26">
  <defs>
    <style>
      .cls-1 {
        fill: #ebebeb;
      }

      .cls-2 {
        fill: #4594d3;
      }
    </style>
  </defs>
  <g id="Layer_1-2" data-name="Layer 1">
    <g>
      <path class="cls-2" d="M129.63,56.72l-10.95-3.37c-3.37-.84-5.34,0-6.46,3.37-5.05,14.88-15.44,29.76-29.76,33.13,2.53-2.53,7.58-14.32,6.46-27.8-1.68-25.27-22.74-34.82-22.74-51.95,0-4.77-1.68-6.74-4.77-6.74h-22.46c-3.93,0-5.9,1.68-6.74,6.18-.28,2.53-1.68,8.42-3.37,12.92L14.78,58.13c-.84,1.97-.28,2.81,1.12,3.65l16.29,4.77c2.25,.56,2.53,0,3.09-1.68l7.58-24.71c8.42,8.99,17.69,24.43,12.07,39.03-3.65,8.14-10.11,11.51-18.53,11.51-12.36,0-19.09-7.3-21.06-8.99-1.68-1.4-3.37-1.68-5.34,.84-1.12,1.4-7.3,8.7-8.99,10.95-1.4,2.25-1.12,3.37-.56,4.21,2.25,2.53,22.46,21.34,54.48,21.34,26.11,0,42.68-7.86,59.81-25.27,7.02-7.58,14.6-19.38,17.13-28.36,1.97-6.46,.28-7.86-2.25-8.7h0Z"/>
      <path class="cls-1" d="M94.17,183.64c-.28,3.09,1.68,5.62,4.77,5.62h22.46c3.93,0,5.9-1.97,6.46-5.62l14.6-92.1c6.74-42.96,24.99-60.37,41.56-60.37,15.16,0,21.34,14.88,16.57,33.42-4.21,16.01-14.32,26.4-28.36,26.4-4.77,0-7.3-1.12-9.55-1.68-4.49-1.4-7.02-.56-8.14,2.25l-5.62,13.2c-1.68,3.93,0,6.46,6.18,9.27,4.49,1.97,13.48,5.05,23.87,5.05,28.36,0,57.56-23.03,61.21-66.27C242.71,23.31,219.4,0,193.01,0c-17.41,0-31.45,10.39-39.03,18.25l1.4-9.27c.56-3.09-1.4-5.62-4.77-5.62h-22.46c-3.37,0-5.9,2.25-6.46,5.62l-27.52,174.66Z"/>
    </g>
  </g>
</svg>