<svg width="56" height="44" viewBox="0 0 56 44" fill="none" xmlns="http://www.w3.org/2000/svg">
<g clip-path="url(#clip0_2110_24192)">
<path d="M30.2004 13.1866L27.6494 12.4031C26.8642 12.2079 26.4053 12.4031 26.1443 13.1866C24.9678 16.646 22.5472 20.1054 19.211 20.8888C19.8005 20.3006 20.977 17.5597 20.716 14.4258C20.3246 8.55088 15.4182 6.33065 15.4182 2.3482C15.4182 1.23924 15.0268 0.78125 14.3069 0.78125H9.07432C8.15873 0.78125 7.69977 1.17182 7.50408 2.218C7.43884 2.80619 7.11268 4.17552 6.71895 5.2217L3.44334 13.5144C3.24764 13.9724 3.3781 14.1677 3.70427 14.363L7.49942 15.4719C8.02361 15.6021 8.08884 15.4719 8.21931 15.0814L9.98525 9.33668C11.9469 11.4267 14.1066 15.0163 12.7972 18.4105C11.9469 20.303 10.4419 21.0864 8.48024 21.0864C5.60068 21.0864 4.03276 19.3893 3.5738 18.9964C3.18241 18.6709 2.78868 18.6058 2.32972 19.1917C2.06879 19.5172 0.629009 21.2143 0.235283 21.7374C-0.0908811 22.2605 -0.0256484 22.5209 0.104817 22.7162C0.629009 23.3043 5.33742 27.6774 12.7972 27.6774C18.8802 27.6774 22.7406 25.85 26.7314 21.8025C28.3669 20.0403 30.1329 17.2969 30.7223 15.2092C31.1812 13.7074 30.7875 13.3819 30.1981 13.1866H30.2004Z" fill="#4594D3"/>
<path d="M21.9392 42.6934C21.8739 43.4118 22.3306 44 23.0505 44H28.2831C29.1986 44 29.6576 43.542 29.7881 42.6934L33.1895 21.2816C34.7597 11.2941 39.0115 7.24654 42.8719 7.24654C46.4038 7.24654 47.8436 10.7059 46.7323 15.0162C45.7515 18.7382 43.3961 21.1538 40.1251 21.1538C39.0138 21.1538 38.4244 20.8934 37.9002 20.7632C36.8542 20.4377 36.2647 20.633 36.0038 21.2863L34.6945 24.3551C34.3031 25.2687 34.6945 25.8569 36.1343 26.5102C37.1803 26.9682 39.2748 27.6842 41.6954 27.6842C48.3025 27.6842 55.1054 22.3301 55.9557 12.2775C56.5451 5.41921 51.1145 0 44.9663 0C40.9102 0 37.6393 2.41551 35.8733 4.24284L36.1995 2.08771C36.33 1.36933 35.8733 0.781148 35.0882 0.781148H29.8556C29.0705 0.781148 28.4811 1.30424 28.3506 2.08771L21.9392 42.6934Z" fill="#1E1E1E"/>
</g>
<defs>
<clipPath id="clip0_2110_24192">
<rect width="56" height="44" fill="white"/>
</clipPath>
</defs>
</svg>
