<svg width="154" height="50" viewBox="0 0 154 50" fill="none" xmlns="http://www.w3.org/2000/svg">
<g clip-path="url(#clip0_2522_13910)">
<mask id="mask0_2522_13910" style="mask-type:luminance" maskUnits="userSpaceOnUse" x="0" y="4" width="56" height="44">
<path d="M56 4H0V48H56V4Z" fill="white"/>
</mask>
<g mask="url(#mask0_2522_13910)">
<path d="M30.2005 17.1866L27.6495 16.4031C26.8643 16.2079 26.4054 16.4031 26.1444 17.1866C24.9679 20.646 22.5473 24.1054 19.2111 24.8888C19.8006 24.3006 20.9771 21.5597 20.7161 18.4258C20.3247 12.5509 15.4183 10.3307 15.4183 6.3482C15.4183 5.23924 15.0269 4.78125 14.307 4.78125H9.07444C8.15885 4.78125 7.69989 5.17182 7.5042 6.218C7.43896 6.80619 7.1128 8.17552 6.71907 9.2217L3.44346 17.5144C3.24776 17.9724 3.37822 18.1677 3.70439 18.363L7.49954 19.4719C8.02373 19.6021 8.08896 19.4719 8.21943 19.0814L9.98537 13.3367C11.947 15.4267 14.1067 19.0163 12.7973 22.4105C11.947 24.303 10.442 25.0864 8.48036 25.0864C5.6008 25.0864 4.03288 23.3893 3.57392 22.9964C3.18253 22.6709 2.7888 22.6058 2.32984 23.1917C2.06891 23.5172 0.629131 25.2143 0.235405 25.7374C-0.090759 26.2605 -0.0255263 26.5209 0.104939 26.7162C0.629131 27.3043 5.33754 31.6774 12.7973 31.6774C18.8803 31.6774 22.7407 29.85 26.7315 25.8025C28.367 24.0403 30.133 21.2969 30.7224 19.2092C31.1813 17.7074 30.7876 17.3819 30.1982 17.1866H30.2005Z" fill="#4594D3"/>
<path d="M21.9393 46.6934C21.874 47.4118 22.3307 48 23.0506 48H28.2832C29.1987 48 29.6577 47.542 29.7882 46.6934L33.1896 25.2816C34.7598 15.2941 39.0116 11.2465 42.872 11.2465C46.4039 11.2465 47.8437 14.7059 46.7324 19.0162C45.7516 22.7382 43.3962 25.1538 40.1252 25.1538C39.0139 25.1538 38.4245 24.8934 37.9003 24.7632C36.8543 24.4377 36.2648 24.633 36.0039 25.2863L34.6946 28.3551C34.3032 29.2687 34.6946 29.8569 36.1344 30.5102C37.1804 30.9682 39.2749 31.6842 41.6955 31.6842C48.3026 31.6842 55.1055 26.3301 55.9558 16.2775C56.5452 9.41921 51.1146 4 44.9664 4C40.9103 4 37.6394 6.41551 35.8734 8.24284L36.1996 6.08771C36.3301 5.36933 35.8734 4.78115 35.0883 4.78115H29.8557C29.0706 4.78115 28.4812 5.30424 28.3507 6.08771L21.9393 46.6934Z" fill="#1E1E1E"/>
</g>
</g>
<path d="M76.2598 21.2051C75.2507 21.2051 74.3197 21.0879 73.4668 20.8535C72.6204 20.6126 71.7936 20.209 70.9863 19.6426V16.2832H73.0371L73.3496 18.3535C73.6686 18.6009 74.082 18.7995 74.5898 18.9492C75.1042 19.099 75.6608 19.1738 76.2598 19.1738C76.8066 19.1738 77.2656 19.099 77.6367 18.9492C78.0143 18.793 78.3008 18.5749 78.4961 18.2949C78.6914 18.0085 78.7891 17.6764 78.7891 17.2988C78.7891 16.9342 78.7012 16.6152 78.5254 16.3418C78.3496 16.0618 78.0599 15.8112 77.6562 15.5898C77.2591 15.362 76.7188 15.1471 76.0352 14.9453C74.9414 14.6393 74.0299 14.291 73.3008 13.9004C72.5716 13.5098 72.0247 13.041 71.6602 12.4941C71.3021 11.9408 71.123 11.2832 71.123 10.5215C71.123 9.75977 71.3314 9.08594 71.748 8.5C72.1712 7.90755 72.7539 7.44206 73.4961 7.10352C74.2448 6.76497 75.1042 6.59245 76.0742 6.58594C77.1549 6.57292 78.1087 6.70638 78.9355 6.98633C79.7624 7.26628 80.4688 7.64388 81.0547 8.11914V11.2441H79.0527L78.6914 9.28125C78.431 9.10547 78.0892 8.95573 77.666 8.83203C77.2428 8.70833 76.7546 8.64648 76.2012 8.64648C75.7259 8.64648 75.306 8.72135 74.9414 8.87109C74.5768 9.01432 74.2904 9.22591 74.082 9.50586C73.8737 9.78581 73.7695 10.1211 73.7695 10.5117C73.7695 10.8503 73.8607 11.1465 74.043 11.4004C74.2253 11.6543 74.5312 11.8887 74.9609 12.1035C75.3906 12.3184 75.9733 12.5397 76.709 12.7676C78.265 13.1908 79.4434 13.7637 80.2441 14.4863C81.0514 15.2025 81.4551 16.1335 81.4551 17.2793C81.4551 18.0736 81.237 18.7669 80.8008 19.3594C80.3711 19.9453 79.7656 20.401 78.9844 20.7266C78.2096 21.0456 77.3014 21.2051 76.2598 21.2051ZM82.5781 21V19.3984L84.0039 19.1055V7.66992L82.4707 7.37695V5.76562H86.6504V19.1055L87.959 19.3984V21H82.5781ZM89.3164 21V19.457L90.1855 19.2812L90.166 19.2422L87.8613 16.1758L89.5117 14.3789L93.1445 19.1055L94.502 19.3984V21H89.3164ZM86.3867 18.0801L85.1562 16.498L89.7461 12.2207L89.7754 12.1816L88.6816 12.0352V10.4336H93.9746V12.0449L92.6172 12.377L86.3867 18.0801ZM95.4395 21V19.3984L96.8555 19.1055V12.3379L95.3223 12.0449V10.4336H99.5117V19.1055L100.928 19.3984V21H95.4395ZM96.7578 8.11914V5.76562H99.5117V8.11914H96.7578ZM101.816 21V19.3984L103.242 19.1055V7.66992L101.709 7.37695V5.76562H105.898V19.1055L107.324 19.3984V21H101.816ZM108.203 21V19.3984L109.629 19.1055V7.66992L108.096 7.37695V5.76562H112.285V19.1055L113.711 19.3984V21H108.203ZM119.219 21.2051C118.444 21.2051 117.721 21.1335 117.051 20.9902C116.387 20.8405 115.736 20.6224 115.098 20.3359L115.068 17.4453H116.943L117.314 18.9688C117.568 19.0859 117.835 19.1771 118.115 19.2422C118.395 19.3073 118.711 19.3398 119.062 19.3398C119.733 19.3398 120.205 19.2292 120.479 19.0078C120.758 18.7799 120.898 18.4967 120.898 18.1582C120.898 17.8327 120.752 17.5527 120.459 17.3184C120.166 17.0775 119.6 16.8691 118.76 16.6934C117.503 16.4264 116.579 16.026 115.986 15.4922C115.394 14.9518 115.098 14.2617 115.098 13.4219C115.098 12.8359 115.247 12.3053 115.547 11.8301C115.853 11.3548 116.309 10.974 116.914 10.6875C117.52 10.3945 118.278 10.248 119.189 10.248C119.99 10.248 120.71 10.3294 121.348 10.4922C121.992 10.6549 122.536 10.8633 122.979 11.1172L123.027 13.9102H121.162L120.859 12.5234C120.671 12.3867 120.449 12.2826 120.195 12.2109C119.941 12.1328 119.655 12.0938 119.336 12.0938C118.815 12.0938 118.408 12.2044 118.115 12.4258C117.829 12.6471 117.686 12.9271 117.686 13.2656C117.686 13.4609 117.734 13.64 117.832 13.8027C117.93 13.9655 118.118 14.1185 118.398 14.2617C118.685 14.3984 119.102 14.5286 119.648 14.6523C120.99 14.9583 121.956 15.3652 122.549 15.873C123.148 16.3809 123.447 17.071 123.447 17.9434C123.447 18.9069 123.096 19.6914 122.393 20.2969C121.696 20.9023 120.638 21.2051 119.219 21.2051Z" fill="black"/>
<path d="M70.5957 45V43.3984L72.1289 43.1055V32.6855L70.5957 32.3926V30.7812H72.1289H77.3145C78.3887 30.7812 79.3099 30.9701 80.0781 31.3477C80.8529 31.7188 81.4486 32.2428 81.8652 32.9199C82.2819 33.5905 82.4902 34.3717 82.4902 35.2637C82.4902 36.1621 82.2819 36.9466 81.8652 37.6172C81.4486 38.2812 80.8529 38.7988 80.0781 39.1699C79.3099 39.541 78.3887 39.7266 77.3145 39.7266H74.7852V43.1055L76.3184 43.3984V45H70.5957ZM74.7852 37.6758H77.3145C78.1478 37.6758 78.776 37.4512 79.1992 37.002C79.6224 36.5527 79.834 35.9798 79.834 35.2832C79.834 34.5801 79.6224 33.9974 79.1992 33.5352C78.776 33.0664 78.1478 32.832 77.3145 32.832H74.7852V37.6758ZM86.9238 45.2051C85.8626 45.2051 85.026 44.9284 84.4141 44.375C83.8086 43.8151 83.5059 43.0501 83.5059 42.0801C83.5059 41.084 83.9095 40.2767 84.7168 39.6582C85.5306 39.0332 86.7025 38.7207 88.2324 38.7207H89.7363V37.8906C89.7363 37.3568 89.5768 36.9271 89.2578 36.6016C88.9453 36.276 88.4831 36.1133 87.8711 36.1133C87.5391 36.1133 87.2396 36.1556 86.9727 36.2402C86.7122 36.3184 86.4779 36.4323 86.2695 36.582L86.0449 37.998H84.1113L84.0918 35.3223C84.6257 34.9967 85.2116 34.7363 85.8496 34.541C86.4941 34.3392 87.2103 34.2383 87.998 34.2383C89.3587 34.2383 90.4297 34.5573 91.2109 35.1953C91.9987 35.8268 92.3926 36.735 92.3926 37.9199V42.4219C92.3926 42.5651 92.3926 42.7051 92.3926 42.8418C92.3991 42.9785 92.4121 43.112 92.4316 43.2422L93.5156 43.3984V45H90.1465C90.0749 44.7982 90.0065 44.5931 89.9414 44.3848C89.8828 44.1699 89.8405 43.9551 89.8145 43.7402C89.4694 44.1764 89.056 44.5312 88.5742 44.8047C88.099 45.0716 87.5488 45.2051 86.9238 45.2051ZM87.5781 43.2031C88.0273 43.2031 88.4473 43.099 88.8379 42.8906C89.235 42.6823 89.5345 42.4186 89.7363 42.0996V40.3809H88.2227C87.5391 40.3809 87.0215 40.5404 86.6699 40.8594C86.3249 41.1719 86.1523 41.543 86.1523 41.9727C86.1523 42.3633 86.276 42.666 86.5234 42.8809C86.7708 43.0957 87.1224 43.2031 87.5781 43.2031ZM99.1211 45.2051C98.3464 45.2051 97.6237 45.1335 96.9531 44.9902C96.2891 44.8405 95.638 44.6224 95 44.3359L94.9707 41.4453H96.8457L97.2168 42.9688C97.4707 43.0859 97.7376 43.1771 98.0176 43.2422C98.2975 43.3073 98.6133 43.3398 98.9648 43.3398C99.6354 43.3398 100.107 43.2292 100.381 43.0078C100.661 42.7799 100.801 42.4967 100.801 42.1582C100.801 41.8327 100.654 41.5527 100.361 41.3184C100.068 41.0775 99.502 40.8691 98.6621 40.6934C97.4056 40.4264 96.4811 40.026 95.8887 39.4922C95.2962 38.9518 95 38.2617 95 37.4219C95 36.8359 95.1497 36.3053 95.4492 35.8301C95.7552 35.3548 96.2109 34.974 96.8164 34.6875C97.4219 34.3945 98.1803 34.248 99.0918 34.248C99.8926 34.248 100.612 34.3294 101.25 34.4922C101.895 34.6549 102.438 34.8633 102.881 35.1172L102.93 37.9102H101.064L100.762 36.5234C100.573 36.3867 100.352 36.2826 100.098 36.2109C99.8438 36.1328 99.5573 36.0938 99.2383 36.0938C98.7174 36.0938 98.3105 36.2044 98.0176 36.4258C97.7311 36.6471 97.5879 36.9271 97.5879 37.2656C97.5879 37.4609 97.6367 37.64 97.7344 37.8027C97.832 37.9655 98.0208 38.1185 98.3008 38.2617C98.5872 38.3984 99.0039 38.5286 99.5508 38.6523C100.892 38.9583 101.859 39.3652 102.451 39.873C103.05 40.3809 103.35 41.071 103.35 41.9434C103.35 42.9069 102.998 43.6914 102.295 44.2969C101.598 44.9023 100.54 45.2051 99.1211 45.2051ZM109.199 45.2051C108.424 45.2051 107.702 45.1335 107.031 44.9902C106.367 44.8405 105.716 44.6224 105.078 44.3359L105.049 41.4453H106.924L107.295 42.9688C107.549 43.0859 107.816 43.1771 108.096 43.2422C108.376 43.3073 108.691 43.3398 109.043 43.3398C109.714 43.3398 110.186 43.2292 110.459 43.0078C110.739 42.7799 110.879 42.4967 110.879 42.1582C110.879 41.8327 110.732 41.5527 110.439 41.3184C110.146 41.0775 109.58 40.8691 108.74 40.6934C107.484 40.4264 106.559 40.026 105.967 39.4922C105.374 38.9518 105.078 38.2617 105.078 37.4219C105.078 36.8359 105.228 36.3053 105.527 35.8301C105.833 35.3548 106.289 34.974 106.895 34.6875C107.5 34.3945 108.258 34.248 109.17 34.248C109.971 34.248 110.69 34.3294 111.328 34.4922C111.973 34.6549 112.516 34.8633 112.959 35.1172L113.008 37.9102H111.143L110.84 36.5234C110.651 36.3867 110.43 36.2826 110.176 36.2109C109.922 36.1328 109.635 36.0938 109.316 36.0938C108.796 36.0938 108.389 36.2044 108.096 36.4258C107.809 36.6471 107.666 36.9271 107.666 37.2656C107.666 37.4609 107.715 37.64 107.812 37.8027C107.91 37.9655 108.099 38.1185 108.379 38.2617C108.665 38.3984 109.082 38.5286 109.629 38.6523C110.97 38.9583 111.937 39.3652 112.529 39.873C113.128 40.3809 113.428 41.071 113.428 41.9434C113.428 42.9069 113.076 43.6914 112.373 44.2969C111.676 44.9023 110.618 45.2051 109.199 45.2051ZM114.678 49.0625V47.4512L116.084 47.1582V36.3379L114.541 36.0449V34.4336H118.496L118.643 35.6738C118.962 35.2116 119.349 34.8568 119.805 34.6094C120.26 34.362 120.801 34.2383 121.426 34.2383C122.279 34.2383 123.008 34.4727 123.613 34.9414C124.225 35.4036 124.694 36.0547 125.02 36.8945C125.345 37.7344 125.508 38.7109 125.508 39.8242V40.0293C125.508 41.0645 125.345 41.9727 125.02 42.7539C124.694 43.5286 124.225 44.1309 123.613 44.5605C123.008 44.9902 122.275 45.2051 121.416 45.2051C120.83 45.2051 120.316 45.1009 119.873 44.8926C119.43 44.6842 119.049 44.3783 118.73 43.9746V47.1582L120.176 47.4512V49.0625H114.678ZM120.615 43.1641C121.383 43.1641 121.947 42.8809 122.305 42.3145C122.663 41.748 122.842 40.9863 122.842 40.0293V39.8242C122.842 39.1276 122.76 38.5189 122.598 37.998C122.441 37.4707 122.197 37.0605 121.865 36.7676C121.533 36.4681 121.11 36.3184 120.596 36.3184C120.173 36.3184 119.801 36.416 119.482 36.6113C119.17 36.8001 118.919 37.0671 118.73 37.4121V42.1484C118.919 42.474 119.17 42.7246 119.482 42.9004C119.801 43.0762 120.179 43.1641 120.615 43.1641ZM132.012 45.2051C130.977 45.2051 130.091 44.9772 129.355 44.5215C128.62 44.0658 128.053 43.4342 127.656 42.627C127.259 41.8132 127.061 40.8789 127.061 39.8242V39.6191C127.061 38.571 127.259 37.6432 127.656 36.8359C128.053 36.0286 128.62 35.3939 129.355 34.9316C130.091 34.4694 130.97 34.2383 131.992 34.2383C133.021 34.2383 133.903 34.4694 134.639 34.9316C135.374 35.3874 135.938 36.0189 136.328 36.8262C136.725 37.6335 136.924 38.5645 136.924 39.6191V39.8242C136.924 40.8789 136.725 41.8132 136.328 42.627C135.938 43.4342 135.374 44.0658 134.639 44.5215C133.903 44.9772 133.027 45.2051 132.012 45.2051ZM132.012 43.1641C132.526 43.1641 132.949 43.0241 133.281 42.7441C133.62 42.4642 133.87 42.0736 134.033 41.5723C134.196 41.0645 134.277 40.4818 134.277 39.8242V39.6191C134.277 38.9681 134.196 38.3919 134.033 37.8906C133.87 37.3893 133.62 36.9987 133.281 36.7188C132.943 36.4323 132.513 36.2891 131.992 36.2891C131.471 36.2891 131.042 36.4323 130.703 36.7188C130.371 36.9987 130.124 37.3893 129.961 37.8906C129.798 38.3919 129.717 38.9681 129.717 39.6191V39.8242C129.717 40.4883 129.798 41.071 129.961 41.5723C130.124 42.0736 130.374 42.4642 130.713 42.7441C131.051 43.0241 131.484 43.1641 132.012 43.1641ZM138.398 45V43.3984L139.814 43.1055V36.3379L138.291 36.0449V34.4336H142.275L142.393 35.752L142.412 35.9766C142.679 35.4102 143.011 34.9805 143.408 34.6875C143.805 34.388 144.274 34.2383 144.814 34.2383C144.99 34.2383 145.179 34.2546 145.381 34.2871C145.589 34.3132 145.765 34.349 145.908 34.3945L145.605 36.8457L144.209 36.7676C143.786 36.748 143.438 36.8262 143.164 37.002C142.897 37.1777 142.666 37.4284 142.471 37.7539V43.1055L143.887 43.3984V45H138.398ZM151.143 45.1953C150.205 45.1953 149.476 44.9349 148.955 44.4141C148.441 43.8867 148.184 43.0534 148.184 41.9141V36.3184H146.689V34.4336H148.184V31.8555H150.83V34.4336H152.852V36.3184H150.83V41.9141C150.83 42.3438 150.921 42.653 151.104 42.8418C151.286 43.0306 151.53 43.125 151.836 43.125C152.005 43.125 152.191 43.112 152.393 43.0859C152.594 43.0599 152.764 43.0339 152.9 43.0078L153.154 44.8926C152.861 44.9772 152.536 45.0488 152.178 45.1074C151.826 45.166 151.481 45.1953 151.143 45.1953Z" fill="black"/>
<defs>
<clipPath id="clip0_2522_13910">
<rect width="56" height="44" fill="white" transform="translate(0 4)"/>
</clipPath>
</defs>
</svg>
